<svg width="25" height="24" viewBox="0 0 25 24" fill="none" xmlns="http://www.w3.org/2000/svg">
<path d="M10.511 10.39C9.93715 10.39 9.48409 10.89 9.48409 11.5C9.48409 12.11 9.94721 12.61 10.511 12.61C11.0849 12.61 11.538 12.11 11.538 11.5C11.548 10.89 11.0849 10.39 10.511 10.39ZM14.1859 10.39C13.612 10.39 13.1589 10.89 13.1589 11.5C13.1589 12.11 13.622 12.61 14.1859 12.61C14.7597 12.61 15.2128 12.11 15.2128 11.5C15.2128 10.89 14.7597 10.39 14.1859 10.39Z" fill="white"/>
<path d="M19.0789 2H5.58775C4.45006 2 3.5238 2.92 3.5238 4.06V17.58C3.5238 18.72 4.45006 19.64 5.58775 19.64H17.0049L16.4713 17.79L17.76 18.98L18.9782 20.1L21.1429 22V4.06C21.1429 2.92 20.2166 2 19.0789 2ZM15.1926 15.06C15.1926 15.06 14.8302 14.63 14.5282 14.25C15.8471 13.88 16.3505 13.06 16.3505 13.06C15.9377 13.33 15.545 13.52 15.1926 13.65C14.6892 13.86 14.206 14 13.7328 14.08C12.7663 14.26 11.8803 14.21 11.1252 14.07C10.5513 13.96 10.058 13.8 9.64516 13.64C9.4136 13.55 9.1619 13.44 8.9102 13.3C8.87999 13.28 8.84979 13.27 8.81959 13.25C8.79945 13.24 8.78938 13.23 8.77931 13.22C8.59809 13.12 8.49741 13.05 8.49741 13.05C8.49741 13.05 8.98067 13.85 10.2593 14.23C9.95727 14.61 9.58476 15.06 9.58476 15.06C7.35972 14.99 6.51401 13.54 6.51401 13.54C6.51401 10.32 7.9638 7.71 7.9638 7.71C9.4136 6.63 10.7929 6.66 10.7929 6.66L10.8936 6.78C9.08135 7.3 8.24571 8.09 8.24571 8.09C8.24571 8.09 8.46721 7.97 8.83972 7.8C9.917 7.33 10.7728 7.2 11.1252 7.17C11.1856 7.16 11.2359 7.15 11.2963 7.15C11.9105 7.07 12.6052 7.05 13.3301 7.13C14.2865 7.24 15.3135 7.52 16.3605 8.09C16.3605 8.09 15.5652 7.34 13.8536 6.82L13.9946 6.66C13.9946 6.66 15.3739 6.63 16.8237 7.71C16.8237 7.71 18.2735 10.32 18.2735 13.54C18.2735 13.54 17.4177 14.99 15.1926 15.06Z" fill="white"/>
</svg>
