<?xml version="1.0" encoding="utf-8"?>
<!-- Generator: Adobe Illustrator 25.2.1, SVG Export Plug-In . SVG Version: 6.00 Build 0)  -->
<svg version="1.1" id="Layer_1" xmlns="http://www.w3.org/2000/svg" xmlns:xlink="http://www.w3.org/1999/xlink" x="0px" y="0px"
	 width="12px" height="12px" viewBox="0 0 12 12" style="enable-background:new 0 0 12 12;" xml:space="preserve">
<style type="text/css">
	.st0{fill:#3BBFAD;}
</style>
<path class="st0" d="M6,2V0.5l-2,2l2,2V3c1.7,0,3,1.3,3,3c0,0.5-0.1,1-0.4,1.4l0.7,0.7C9.8,7.5,10,6.8,10,6C10,3.8,8.2,2,6,2z M6,9
	C4.3,9,3,7.7,3,6c0-0.5,0.1-1,0.3-1.4L2.6,3.9C2.2,4.5,2,5.2,2,6c0,2.2,1.8,4,4,4v1.5l2-2l-2-2V9z"/>
</svg>
