<?xml version="1.0" encoding="utf-8"?>
<!-- Generator: Adobe Illustrator 25.2.1, SVG Export Plug-In . SVG Version: 6.00 Build 0)  -->
<svg version="1.1" id="Layer_1" xmlns="http://www.w3.org/2000/svg" xmlns:xlink="http://www.w3.org/1999/xlink" x="0px" y="0px"
	 width="24px" height="24px" viewBox="0 0 24 24" style="enable-background:new 0 0 24 24;" xml:space="preserve">
<style type="text/css">
	.st0{enable-background:new    ;}
	.st1{fill:#FFFFFF;}
</style>
<g class="st0">
	<path class="st1" d="M20.9,11.5c0,0.1,0,0.1,0,0.2s0,0.1,0,0.2s0,0.1,0,0.2s0,0.1,0,0.2l3,1.9l-1.9,4.5L18.6,18
		c-0.2,0.2-0.4,0.4-0.6,0.6l0.8,3.5l-4.5,1.9l-1.9-3c-0.1,0-0.1,0-0.2,0s-0.1,0-0.2,0s-0.1,0-0.2,0s-0.1,0-0.2,0l-1.9,3L5.2,22
		L6,18.6c-0.2-0.2-0.4-0.4-0.6-0.6l-3.5,0.8l-1.9-4.5l3-1.9c0-0.1,0-0.1,0-0.2s0-0.1,0-0.2s0-0.1,0-0.2s0-0.1,0-0.2l-3-1.9l1.9-4.5
		L5.4,6C5.6,5.8,5.8,5.6,6,5.4L5.2,1.9L9.7,0l1.9,3c0.1,0,0.1,0,0.2,0s0.1,0,0.2,0s0.1,0,0.2,0s0.1,0,0.2,0l1.9-3l4.5,1.9L18,5.4
		c0.2,0.2,0.4,0.4,0.6,0.6l3.5-0.8l1.9,4.5L20.9,11.5z M19.5,13.1c0-0.2,0-0.4,0-0.6s0-0.4,0-0.6c0-0.2,0-0.4,0-0.6s0-0.4,0-0.6
		l2.8-1.7l-1-2.4l-3.2,0.7c-0.2-0.3-0.5-0.6-0.7-0.8s-0.5-0.5-0.8-0.8l0.7-3.2l-2.4-1l-1.7,2.8c-0.2,0-0.4,0-0.6,0s-0.4,0-0.6,0
		c-0.2,0-0.4,0-0.6,0s-0.4,0-0.6,0L9.2,1.7l-2.4,1l0.7,3.2C7.2,6.1,6.9,6.4,6.6,6.6S6.1,7.1,5.9,7.4L2.7,6.7l-1,2.4l2.8,1.7
		c0,0.2,0,0.4,0,0.6s0,0.4,0,0.6c0,0.2,0,0.4,0,0.6s0,0.4,0,0.6l-2.8,1.7l1,2.4l3.2-0.7c0.2,0.3,0.5,0.6,0.7,0.8s0.5,0.5,0.8,0.8
		l-0.7,3.2l2.4,1l1.7-2.8c0.2,0,0.4,0,0.6,0s0.4,0,0.6,0c0.2,0,0.4,0,0.6,0s0.4,0,0.6,0l1.7,2.8l2.4-1l-0.7-3.2
		c0.3-0.2,0.6-0.5,0.8-0.7s0.5-0.5,0.8-0.8l3.2,0.7l1-2.4L19.5,13.1z M12,7.6c0.6,0,1.2,0.1,1.7,0.3s1,0.5,1.4,0.9s0.7,0.9,0.9,1.4
		s0.3,1.1,0.3,1.7s-0.1,1.2-0.3,1.7s-0.5,1-0.9,1.4s-0.9,0.7-1.4,0.9s-1.1,0.3-1.7,0.3s-1.2-0.1-1.7-0.3s-1-0.5-1.4-0.9
		s-0.7-0.9-0.9-1.4S7.6,12.6,7.6,12s0.1-1.2,0.3-1.7s0.5-1,0.9-1.4s0.9-0.7,1.4-0.9S11.4,7.6,12,7.6z M12,15.1
		c0.4,0,0.8-0.1,1.2-0.2s0.7-0.4,1-0.7s0.5-0.6,0.7-1s0.2-0.8,0.2-1.2s-0.1-0.8-0.2-1.2s-0.4-0.7-0.7-1s-0.6-0.5-1-0.7
		S12.4,8.9,12,8.9S11.2,9,10.8,9.1s-0.7,0.4-1,0.7s-0.5,0.6-0.7,1S8.9,11.5,8.9,12s0.1,0.8,0.2,1.2s0.4,0.7,0.7,1s0.6,0.5,1,0.7
		S11.6,15.1,12,15.1z"/>
</g>
</svg>
